<?xml version="1.0" encoding="UTF-8"?>
<svg xmlns="http://www.w3.org/2000/svg" xmlns:xlink="http://www.w3.org/1999/xlink" width="128px" height="128px" viewBox="0 0 128 128" version="1.1">
<g id="surface1">
<path style=" stroke:none;fill-rule:nonzero;fill:rgb(1.176471%,66.274512%,95.686275%);fill-opacity:1;" d="M 43.726562 3.175781 C 35.351562 3.175781 28.523438 10 28.523438 18.375 L 28.523438 82.375 L 33.601562 78.726562 L 38.675781 82.375 L 38.675781 18.375 C 38.675781 15.574219 40.949219 13.300781 43.75 13.300781 L 48.824219 13.300781 L 48.824219 3.175781 Z M 104.550781 3.175781 C 96.175781 3.175781 89.351562 10 89.351562 18.375 L 89.351562 23.449219 L 43.726562 23.449219 L 43.726562 33.601562 L 89.351562 33.601562 L 89.351562 43.75 L 43.726562 43.75 L 43.726562 53.898438 L 89.351562 53.898438 L 89.351562 64 L 43.726562 64 L 43.726562 74.148438 L 89.351562 74.148438 L 89.351562 82.398438 L 94.425781 78.75 L 99.5 82.398438 L 99.5 18.398438 C 99.5 15.601562 101.773438 13.324219 104.574219 13.324219 L 109.648438 13.324219 L 109.648438 3.175781 Z M 33.574219 87.925781 L 30.398438 90.449219 C 30.398438 90.449219 25.300781 94.398438 18.523438 94.398438 C 11.75 94.398438 6.324219 90.449219 6.324219 90.449219 L 0 98.375 C 0 98.375 7.824219 104.550781 18.523438 104.550781 C 25.925781 104.550781 30.648438 102.101562 33.574219 100.273438 C 36.523438 102.074219 41.476562 104.550781 48.949219 104.550781 C 56.351562 104.550781 61.074219 102.101562 64 100.273438 C 66.949219 102.074219 71.898438 104.550781 79.375 104.550781 C 86.773438 104.550781 91.5 102.101562 94.425781 100.273438 C 97.375 102.074219 102.324219 104.550781 109.800781 104.550781 C 120.523438 104.550781 128.023438 98.375 128.023438 98.375 L 121.699219 90.449219 C 121.699219 90.449219 116.601562 94.398438 109.824219 94.398438 C 103.023438 94.398438 97.625 90.449219 97.625 90.449219 L 94.449219 87.925781 L 91.25 90.449219 C 91.25 90.449219 86.148438 94.398438 79.375 94.398438 C 72.574219 94.398438 67.175781 90.449219 67.175781 90.449219 L 64 87.925781 L 60.824219 90.449219 C 60.824219 90.449219 55.726562 94.398438 48.949219 94.398438 C 42.175781 94.398438 36.75 90.449219 36.75 90.449219 Z M 33.574219 108.199219 L 30.398438 110.726562 C 30.398438 110.726562 25.300781 114.675781 18.523438 114.675781 C 11.75 114.675781 6.324219 110.726562 6.324219 110.726562 L 0 118.648438 C 0 118.648438 7.824219 124.824219 18.523438 124.824219 C 25.925781 124.824219 30.648438 122.375 33.574219 120.550781 C 36.523438 122.351562 41.476562 124.824219 48.949219 124.824219 C 56.351562 124.824219 61.074219 122.375 64 120.550781 C 66.949219 122.351562 71.898438 124.824219 79.375 124.824219 C 86.773438 124.824219 91.5 122.375 94.425781 120.550781 C 97.375 122.351562 102.324219 124.824219 109.800781 124.824219 C 120.523438 124.824219 128.023438 118.648438 128.023438 118.648438 L 121.699219 110.726562 C 121.699219 110.726562 116.601562 114.675781 109.824219 114.675781 C 103.023438 114.675781 97.625 110.726562 97.625 110.726562 L 94.449219 108.199219 L 91.25 110.726562 C 91.25 110.726562 86.148438 114.675781 79.375 114.675781 C 72.574219 114.675781 67.175781 110.726562 67.175781 110.726562 L 64 108.199219 L 60.824219 110.726562 C 60.824219 110.726562 55.726562 114.675781 48.949219 114.675781 C 42.175781 114.675781 36.75 110.726562 36.75 110.726562 Z M 33.574219 108.199219 "/>
</g>
</svg>
